REM DIRINDEX 1\2,1\3,1\4,1\5,1\6
REM DIRNAME cjc129,folder01,folder02,folder03,folder04,folder05
TITLE ""
FILE "DISC1Track22.mp3" MP3
  TRACK 01 AUDIO
    TITLE "0:"
    INDEX 01 00:00:00
  TRACK 02 AUDIO
    TITLE "3:cjc129_0599"
    INDEX 01 00:00:05
  TRACK 03 AUDIO
    TITLE "0:"
    INDEX 01 00:01:40
  TRACK 04 AUDIO
    TITLE "5:cjc129_0600"
    INDEX 01 00:02:00
  TRACK 05 AUDIO
    TITLE "0:"
    INDEX 01 00:05:24
  TRACK 06 AUDIO
    TITLE "4:cjc129_0601"
    INDEX 01 00:06:14
  TRACK 07 AUDIO
    TITLE "0:"
    INDEX 01 00:07:52
  TRACK 08 AUDIO
    TITLE "6:cjc129_0602"
    INDEX 01 00:08:09
  TRACK 09 AUDIO
    TITLE "0:"
    INDEX 01 00:12:58
  TRACK 10 AUDIO
    TITLE "3:cjc129_0603"
    INDEX 01 00:14:33
  TRACK 11 AUDIO
    TITLE "0:"
    INDEX 01 00:18:42
  TRACK 12 AUDIO
    TITLE "5:cjc129_0604"
    INDEX 01 00:18:74
  TRACK 13 AUDIO
    TITLE "0:"
    INDEX 01 00:21:37
  TRACK 14 AUDIO
    TITLE "4:cjc129_0605"
    INDEX 01 00:22:29
  TRACK 15 AUDIO
    TITLE "0:"
    INDEX 01 00:26:36
  TRACK 16 AUDIO
    TITLE "6:cjc129_0606"
    INDEX 01 00:26:69
  TRACK 17 AUDIO
    TITLE "0:"
    INDEX 01 00:32:45
  TRACK 18 AUDIO
    TITLE "3:cjc129_0607"
    INDEX 01 00:34:20
  TRACK 19 AUDIO
    TITLE "0:"
    INDEX 01 00:35:43
  TRACK 20 AUDIO
    TITLE "5:cjc129_0608"
    INDEX 01 00:35:74
  TRACK 21 AUDIO
    TITLE "0:"
    INDEX 01 00:41:12
  TRACK 22 AUDIO
    TITLE "4:cjc129_0609"
    INDEX 01 00:41:69
  TRACK 23 AUDIO
    TITLE "0:"
    INDEX 01 00:43:15
  TRACK 24 AUDIO
    TITLE "6:cjc129_0610"
    INDEX 01 00:43:46
  TRACK 25 AUDIO
    TITLE "0:"
    INDEX 01 00:48:14
  TRACK 26 AUDIO
    TITLE "3:cjc129_0611"
    INDEX 01 00:49:63
  TRACK 27 AUDIO
    TITLE "0:"
    INDEX 01 00:51:18
  TRACK 28 AUDIO
    TITLE "5:cjc129_0612"
    INDEX 01 00:51:50
  TRACK 29 AUDIO
    TITLE "0:"
    INDEX 01 00:53:13
  TRACK 30 AUDIO
    TITLE "4:cjc129_0613"
    INDEX 01 00:54:03
  TRACK 31 AUDIO
    TITLE "0:"
    INDEX 01 00:55:36
  TRACK 32 AUDIO
    TITLE "6:cjc129_0614"
    INDEX 01 00:55:65
  TRACK 33 AUDIO
    TITLE "0:"
    INDEX 01 01:00:25
  TRACK 34 AUDIO
    TITLE "3:cjc129_0615"
    INDEX 01 01:01:74
  TRACK 35 AUDIO
    TITLE "0:"
    INDEX 01 01:03:41
  TRACK 36 AUDIO
    TITLE "5:cjc129_0616"
    INDEX 01 01:04:00
  TRACK 37 AUDIO
    TITLE "0:"
    INDEX 01 01:05:58
  TRACK 38 AUDIO
    TITLE "4:cjc129_0617"
    INDEX 01 01:06:47
  TRACK 39 AUDIO
    TITLE "0:"
    INDEX 01 01:08:15
  TRACK 40 AUDIO
    TITLE "6:cjc129_0618"
    INDEX 01 01:08:48
  TRACK 41 AUDIO
    TITLE "0:"
    INDEX 01 01:12:54
  TRACK 42 AUDIO
    TITLE "3:cjc129_0619"
    INDEX 01 01:14:31
  TRACK 43 AUDIO
    TITLE "0:"
    INDEX 01 01:16:16
  TRACK 44 AUDIO
    TITLE "5:cjc129_0620"
    INDEX 01 01:16:50
  TRACK 45 AUDIO
    TITLE "0:"
    INDEX 01 01:19:58
  TRACK 46 AUDIO
    TITLE "4:cjc129_0621"
    INDEX 01 01:20:48
  TRACK 47 AUDIO
    TITLE "0:"
    INDEX 01 01:22:31
  TRACK 48 AUDIO
    TITLE "6:cjc129_0622"
    INDEX 01 01:22:66
  TRACK 49 AUDIO
    TITLE "0:"
    INDEX 01 01:28:33
  TRACK 50 AUDIO
    TITLE "3:cjc129_0623"
    INDEX 01 01:30:07
  TRACK 51 AUDIO
    TITLE "0:"
    INDEX 01 01:33:23
  TRACK 52 AUDIO
    TITLE "5:cjc129_0624"
    INDEX 01 01:33:56
  TRACK 53 AUDIO
    TITLE "0:"
    INDEX 01 01:35:04
  TRACK 54 AUDIO
    TITLE "4:cjc129_0625"
    INDEX 01 01:35:67
  TRACK 55 AUDIO
    TITLE "0:"
    INDEX 01 01:39:06
  TRACK 56 AUDIO
    TITLE "6:cjc129_0626"
    INDEX 01 01:39:41
  TRACK 57 AUDIO
    TITLE "0:"
    INDEX 01 01:43:37
  TRACK 58 AUDIO
    TITLE "3:cjc129_0627"
    INDEX 01 01:45:12
  TRACK 59 AUDIO
    TITLE "0:"
    INDEX 01 01:46:29
  TRACK 60 AUDIO
    TITLE "5:cjc129_0628"
    INDEX 01 01:46:61
  TRACK 61 AUDIO
    TITLE "0:"
    INDEX 01 01:49:55
  TRACK 62 AUDIO
    TITLE "4:cjc129_0629"
    INDEX 01 01:50:45
  TRACK 63 AUDIO
    TITLE "0:"
    INDEX 01 01:51:60
  TRACK 64 AUDIO
    TITLE "6:cjc129_0630"
    INDEX 01 01:52:18
  TRACK 65 AUDIO
    TITLE "0:"
    INDEX 01 01:56:24
